<svg version="1" xmlns="http://www.w3.org/2000/svg" width="2133.333" height="2133.333" viewBox="0 0 1600.000000 1600.000000"><path d="M1045.8 40.5c-.2.2-4.8.6-10.3 1-11.1.7-15.8 1.2-21.9 2-5.1.7-9.8 1.3-15.4 2-2.4.3-5.3.7-6.5 1-2.4.5-6.3 1.2-11.7 2.1-1.9.3-6.4 1.2-10 2-3.6.9-7.2 1.7-8 1.9-26.4 5.8-61.7 17.5-86.7 28.6-18.3 8.1-49.8 24.6-57.5 30-1.4 1.1-2.8 1.9-3.1 1.9-.8 0-19.3 12.4-30.2 20.3-19.8 14.4-34.6 26.8-51.5 43.2-20.6 19.9-27.9 28.2-51.3 57.5-2.6 3.2-13.6 18.8-18.4 26-19.8 29.8-38 66.1-52 104-3.2 8.7-11.8 37.1-13.8 45.6-.9 3.8-1.8 7.6-2 8.4-1.3 5.2-4.5 21.2-5 25-.4 2.4-.8 4.7-1 5-.1.3-.6 3.2-.9 6.5-.4 3.3-.9 6.7-1.1 7.5-.2.8-.6 4-1 7-.3 3-.7 6.6-1 8-1.2 7.8-2 26.8-1.9 51.5 0 24.4.4 35.4 1.9 49.4.4 3.2-.5 4.4-18.3 22.3-22.7 23-20 20.1-25.1 27.5-6.9 10.1-13.9 24.7-15.6 32.3-.1.8-.8 3.4-1.4 5.7-1.5 5.7-2.5 15.1-2.5 24.3 0 29 10.3 53.8 31.6 76.4 4.5 4.9 8.4 9.2 8.6 9.5.1.4-103.8 104.8-230.9 231.9-180 180.1-231.3 231.9-231.9 234.5-.5 1.7-1.7 6.1-2.8 9.7-1.1 3.6-3.6 11.7-5.5 18-2 6.3-11.5 37.1-21.2 68.5-9.7 31.3-18.4 59.2-19.2 62-.8 2.7-3.7 12.2-6.4 21l-4.9 15.9 61.3 61.4 61.4 61.3 9.4-3c5.2-1.6 13.2-4.1 17.9-5.5 8.3-2.4 45.3-13.8 64-19.6 5.2-1.7 10-3.1 10.5-3.1.6-.1 2.1-.6 3.5-1.1 1.4-.6 4.5-1.6 7-2.3 2.5-.7 17.1-5.2 32.5-10 27-8.4 39.9-12.3 42-12.9 11-2.9 11-2.9 31.1-23l19.4-19.4V1320h140.3l29.8-29.9 29.9-30V1120h140.2l41.6-41.5c22.8-22.9 41.9-41.4 42.3-41.3.4.2 4.1 3.5 8.1 7.4 16.5 15.9 32.2 25 51.8 29.7 34.9 8.5 72.6-.9 98.6-24.6 1.9-1.7 10.7-10.4 19.6-19.3 15.5-15.5 16.4-16.3 19.8-15.9 1.9.2 7.6.7 12.5 1.1 11.3 1.1 61.8 1.1 74.5.1 9.6-.8 18-1.6 20.9-2.2.9-.1 4.5-.6 8.1-1 3.6-.4 7.4-.9 8.5-1.1 1-.2 5.8-1 10.5-1.9 8.2-1.4 11.2-2 15.5-2.9 1.8-.4 17.3-4 21.6-5 7.2-1.8 31.5-9.2 40.6-12.5 17.3-6.2 49.8-20.1 55.3-23.6.8-.5 3.5-1.9 6-3.1 13.9-6.5 45.6-26.3 65.1-40.6 27.1-19.8 59.9-50.1 79.3-73.3 3.3-3.9 6.6-7.8 7.5-8.7 1.9-2 1.4-1.4 11.7-14.8 10.1-13.2 24.3-34 31-45.5 11.2-19.3 27.4-50.6 27.4-52.9 0-.2 1.3-3.3 2.9-6.8 7.6-16.5 22-59.6 24.7-73.8.2-1.4.7-3.2 1-4 .3-.8.8-2.6 1-4 .2-1.4 1.1-5.4 1.9-9 1.3-6.3 3.9-20.4 5-28.5.4-2.2.8-5.1 1-6.5.3-1.4.7-5.6 1.1-9.5.3-3.8.8-8.1 1-9.5 2.4-14 2.4-78.8 0-93-.3-1.4-.7-5.4-1.1-8.9-.7-7.6-1.1-10.6-3.2-22.6-.8-5-1.7-10.4-2-12-2.5-16.4-15.7-62.8-22.4-79-.7-1.7-1.3-3.2-1.3-3.5-.2-.5-6.1-15.2-7.6-18.5-1.5-3.4-19-38.9-20-40.5-.5-.8-4.5-7.6-8.8-15-7.9-13.3-26.4-40.7-33.2-49.1-17.7-21.8-19.9-24.4-31.5-36.7-7.5-8.1-26.5-26.7-32.5-31.8-2.5-2.1-4.7-4.1-5-4.5-.3-.3-5.2-4.3-11-9-5.8-4.6-11-8.9-11.7-9.6-.7-.6-5-3.8-9.6-6.9-4.5-3.2-8.4-6-8.7-6.4-.9-.9-6.9-5-7.5-5-.3 0-2.6-1.5-5.2-3.4-18.7-13.3-56.3-33-86.1-45.1-21.2-8.6-60.9-20.8-77.7-23.9-5.6-1-9-1.6-13.5-2.6-3.9-.8-12.7-2.2-21-3.5-1.4-.2-5.2-.6-8.5-.9-3.3-.4-7.6-.8-9.5-1.1-9.9-1.4-17.9-1.7-44.2-2-15.8-.1-28.9-.1-29 0zm62.2 200.9c1.4.2 4.3.7 6.5 1 68.6 8.8 132.6 43.2 177.1 95.1 33.2 38.7 56 86.7 63.9 134.5.9 5.2 1.8 10.6 2.1 12 1.2 7.1 1.9 20.4 1.9 37 0 16.3-.4 23.6-1.9 37-.7 5.8-3.5 21.3-4.5 24.7-.5 1.8-.8 3.3-.6 3.3.3 0 0 1.2-.6 2.7-.6 1.6-1.3 3.9-1.5 5.3-.9 4.6-10.5 32.3-13.6 38.9-7.8 16.8-12.9 26.7-18.2 35.1-4.3 6.8-14.9 22.4-15.5 23-.3.3-3.1 3.6-6.2 7.5-3.1 3.8-8.7 10.3-12.4 14.3l-6.8 7.3-198.9-198.8-198.9-198.8 6.9-6.5c20.4-19.2 46.3-37 68.9-47.5 4.3-2 8.6-4 9.6-4.6 8.3-4.6 44.4-16.1 57.7-18.3 1.9-.3 4.4-.7 5.5-1 6.9-1.3 15.3-2.5 24.5-3.2 4.1-.4 7.7-.8 7.9-1 .5-.5 44.3.4 47.1 1z"/></svg>